<svg width="190" height="190" viewBox="0 0 190 190" fill="none" xmlns="http://www.w3.org/2000/svg">
<path d="M92.4794 50.8554C98.2159 50.8554 102.867 55.5065 102.867 61.2431C102.867 66.9795 98.2158 71.6298 92.4794 71.6298H61.5204V85.6796H82.2938C88.0303 85.6797 92.6804 90.3299 92.6805 96.0663C92.6805 101.803 88.0304 106.454 82.2938 106.454H61.5204V165.113C61.5203 170.85 56.869 175.5 51.1327 175.5C45.3963 175.5 40.7461 170.85 40.746 165.113V61.2431C40.7461 55.5068 45.3964 50.8556 51.1327 50.8554H92.4794ZM72.4725 10.9218C83.8326 9.03965 95.4845 10.049 106.351 13.8573C117.218 17.6656 126.95 24.1503 134.65 32.7118L135.366 33.5204C142.687 41.923 147.854 51.9881 150.41 62.8466C153.048 74.0554 152.819 85.749 149.747 96.8466L149.451 97.8837C146.977 106.301 142.914 114.146 137.504 121.006L161.857 145.359C165.913 149.416 165.914 155.992 161.857 160.049C157.801 164.105 151.224 164.105 147.168 160.049L122.673 135.554C122.551 135.431 122.432 135.307 122.317 135.181C116.653 139.045 110.42 142.055 103.816 144.085L102.4 144.503C95.7764 146.383 88.9271 147.249 82.0839 147.09L80.618 147.04C74.6251 146.772 70.8302 140.936 72.0399 135.06C73.2502 129.185 79.0326 125.536 85.0292 125.363C89.2211 125.242 93.3944 124.559 97.4344 123.317C104.953 121.007 111.77 116.839 117.254 111.199C122.737 105.56 126.711 98.63 128.809 91.0497C130.843 83.7058 131.052 75.9796 129.425 68.5429L129.263 67.8251C127.517 60.4078 123.987 53.5316 118.986 47.7919L118.498 47.2401C113.402 41.5742 107.003 37.2398 99.8593 34.6093L99.1659 34.3603C91.7427 31.7589 83.7833 31.0696 76.0233 32.3554L75.243 32.4911C71.3496 33.2041 67.5755 34.4051 64.0077 36.0566C58.5635 38.5765 51.7626 37.8908 48.0585 33.1718C44.3547 28.4529 45.1459 21.5382 50.3895 18.6249C57.2313 14.8247 64.6987 12.2099 72.4725 10.9218Z" fill="black"/>
</svg>
