<svg width="110" height="110" viewBox="0 0 110 110" fill="none" xmlns="http://www.w3.org/2000/svg">
<path d="M38.5 49.5C38.5 26.7182 56.9684 8.25 79.75 8.25H80.2714C82.5495 8.25 84.3964 6.40315 84.3964 4.125C84.3964 1.84684 82.5495 0 80.2714 0H79.75C52.4117 0 30.25 22.1619 30.25 49.5V56.375C30.25 60.1722 27.172 63.25 23.375 63.25H4.125C1.84684 63.25 0 65.0969 0 67.375C0 69.6531 1.84684 71.5 4.125 71.5H23.375C31.7283 71.5 38.5 64.7284 38.5 56.375V49.5ZM81.125 27.5C68.2154 27.5 57.75 37.9653 57.75 50.875V59.125C57.75 76.5908 43.591 90.75 26.125 90.75H4.125C1.84684 90.75 0 88.9031 0 86.625C0 84.3469 1.84684 82.5 4.125 82.5H26.125C39.0347 82.5 49.5 72.0346 49.5 59.125V50.875C49.5 33.409 63.6592 19.25 81.125 19.25H105.875C108.153 19.25 110 21.0968 110 23.375C110 25.6532 108.153 27.5 105.875 27.5H81.125ZM83.875 46.75C80.0778 46.75 77 49.8278 77 53.625V60.5C77 87.8383 54.8383 110 27.5 110H26.125C23.8468 110 22 108.153 22 105.875C22 103.597 23.8468 101.75 26.125 101.75H27.5C50.2815 101.75 68.75 83.2815 68.75 60.5V53.625C68.75 45.2716 75.5216 38.5 83.875 38.5H105.875C108.153 38.5 110 40.3468 110 42.625C110 44.9031 108.153 46.75 105.875 46.75H83.875Z" fill="black"/>
</svg>
