<svg width="123" height="99" viewBox="0 0 123 99" fill="none" xmlns="http://www.w3.org/2000/svg">
<path d="M114.4 18C116.941 18 119 20.0147 119 22.5C119 24.9853 116.941 27 114.4 27H100.6C98.0595 27 96 24.9853 96 22.5C96 20.0147 98.0595 18 100.6 18H114.4Z" fill="black"/>
<path d="M96 77.4444V4.55556C96 2.03959 98.0147 0 100.5 0H118.5C120.985 0 123 2.03959 123 4.55556C123 7.07152 120.985 9.11111 118.5 9.11111H105V77.4444C105 79.9604 102.985 82 100.5 82C98.0147 82 96 79.9604 96 77.4444Z" fill="black"/>
<path d="M37 25.0556C37 20.8268 38.6606 16.7725 41.6143 13.7823C44.568 10.7922 48.5728 9.11111 52.75 9.11111H73V41H52.75C48.5728 41 44.568 39.3189 41.6143 36.3288C38.6606 33.3386 37 29.2843 37 25.0556ZM28 25.0556C28 31.7007 30.6095 38.0718 35.251 42.7706C39.8925 47.4694 46.1859 50.1111 52.75 50.1111H73V77.4444C73 79.9604 75.0147 82 77.5 82C79.9853 82 82 79.9604 82 77.4444V4.55556C82 2.03959 79.9853 0 77.5 0H52.75C46.1859 0 39.8925 2.64167 35.251 7.34049C30.6095 12.0393 28 18.4104 28 25.0556Z" fill="black"/>
<path d="M18.1687 48.3435C19.9606 46.5524 22.8653 46.5519 24.6569 48.3435C26.4477 50.1352 26.4477 53.04 24.6569 54.8316L7.83164 71.6569C6.03999 73.4477 3.13515 73.4477 1.3435 71.6569C-0.448085 69.8653 -0.447584 66.9606 1.3435 65.1687L18.1687 48.3435Z" fill="black"/>
<path d="M54.1677 43.3436C55.9594 41.5519 58.8641 41.5524 60.6561 43.3436C62.448 45.1355 62.448 48.04 60.6561 49.8319L17.8319 92.6561C16.04 94.448 13.1355 94.448 11.3436 92.6561C9.5524 90.8641 9.5519 87.9594 11.3436 86.1677L54.1677 43.3436Z" fill="black"/>
<path d="M56.1687 74.3435C57.9606 72.5524 60.8653 72.5519 62.6569 74.3435C64.4477 76.1352 64.4477 79.04 62.6569 80.8316L45.8316 97.6569C44.04 99.4477 41.1352 99.4477 39.3435 97.6569C37.5519 95.8653 37.5524 92.9606 39.3435 91.1687L56.1687 74.3435Z" fill="black"/>
</svg>
