<?xml version="1.0" encoding="utf-8"?>
<!-- Svg Vector Icons : http://www.onlinewebfonts.com/icon -->
<!DOCTYPE svg PUBLIC "-//W3C//DTD SVG 1.1//EN" "http://www.w3.org/Graphics/SVG/1.1/DTD/svg11.dtd">
<svg version="1.1" xmlns="http://www.w3.org/2000/svg" xmlns:xlink="http://www.w3.org/1999/xlink" x="0px" y="0px" viewBox="0 0 256 256" enable-background="new 0 0 256 256" xml:space="preserve">
<metadata> Svg Vector Icons : http://www.onlinewebfonts.com/icon </metadata>
<g><g><g><path fill="#000000" d="M135.4,10.3c-4.7,0.7-9.7,3.2-13,6.6c-3.5,3.5-5.2,6.9-5.9,11.8c-0.3,2-1,4.5-1.5,5.6c-0.5,1-4.1,4.6-7.9,7.9c-8.1,7-10.9,10.5-11.7,14.5c-1.9,8.5,5.3,17.3,14.2,17.3c4.3,0,15.5-4.5,22.7-9.1c5-3.2,5.8-7.7,2-11c-2.8-2.5-4.8-2.3-10.2,0.9c-4.8,2.9-12.5,6.2-14.3,6.2s-2.1-1.6-0.7-3.1c0.7-0.8,4-3.6,7.2-6.5c9.1-7.7,11.7-11.7,12.7-19.3c0.5-3.8,0.7-4.2,2.7-6.1c3.3-3,7.1-3.9,11.1-2.3c4.4,1.8,7.1,7.8,8.2,18.1c0.8,7.2,0.3,10.6-4,27.6c-1.8,7.2-3.4,14.8-3.5,16.9c-0.7,8.8,1.9,23.7,5.5,32.6c3.4,8.2,6.2,12.3,17.5,26c13.1,15.8,15.8,21.1,15.7,31c-0.3,18.2-9.6,30.6-26.9,35.6c-7.1,2.1-14.1,2.8-24.7,2.4c-18.8-0.7-30.5-4.8-39.5-13.9c-9.6-9.9-14.4-23.9-16.3-48.7c-0.7-9.1-0.7-16.1,0-16.1c0.3,0,2.1,0.6,3.9,1.4c4.8,2,7.1,1.9,9.5-0.5c1.6-1.6,1.9-2.2,1.9-4.3c0-4.1-1.3-5.2-11.5-9c-4.9-1.8-9.4-3.4-10.1-3.6c-1.6-0.4-4.6,0.9-6,2.7c-1.1,1.4-1.2,2.1-1.2,10.8c0,23.6,3,43.6,8.4,56.8c6.4,15.3,16,25.3,30.3,31.4c18.9,8,47.5,8.3,65.6,0.7c18.4-7.7,28.6-23,29.5-43.9c0.3-6.3,0.2-8-0.8-11.8c-1.9-7.4-6-14.8-13-23.4c-16.9-20.7-18.4-22.9-21.2-31.3c-0.9-2.8-2.2-8-2.7-11.4c-1.4-9.4-0.9-14.4,2.4-27.2c4.2-16.3,4.6-19.1,4.3-28.6c-0.3-9-1.5-14.5-4.1-20.1C154.9,13.6,146,8.7,135.4,10.3z"/><path fill="#000000" d="M121.2,76.1c-2.2,1.4-2.8,3.1-3.2,9.9c-0.7,13.4-4.1,23.5-11.3,33.8c-1.6,2.2-7.6,8.9-13.3,14.7c-5.8,5.8-10.7,11.2-11.1,11.8c-2.3,4.4,2.1,10.1,7,9c2.3-0.4,21.7-19.7,26.8-26.6c9.1-12.3,13.8-25.5,14.9-42.5c0.3-4.6,0.2-5.8-0.6-7.5C128.8,75.2,124.6,74,121.2,76.1z"/><path fill="#000000" d="M100.8,231.1c-3.5,3-3.3,7.7,0.7,10.9c3.3,2.7,6.8,3.5,15,3.8c6.9,0.2,7.5,0.2,9.7-1c6-3.2,5.7-11.2-0.5-13c-1.7-0.5-2.3-0.5-4.5,0.5c-2.1,1-2.9,1.1-6.3,0.8c-3.2-0.3-4.3-0.7-5.9-1.9C106.5,229.2,103.2,229.1,100.8,231.1z"/><path fill="#000000" d="M160.9,231.2c-2.6,1.7-9.5,2.7-11.4,1.6c-3-1.9-6.6-1.3-8.9,1.6c-2.3,2.9-1,8,2.6,10.2c1.6,1,2.9,1.3,7.6,1.4c9,0.4,16-1.5,19.2-5.2c1.4-1.5,1.6-2.3,1.6-4.6c0-2.5-0.2-3-1.9-4.6C167.3,229.1,164.1,229,160.9,231.2z"/></g></g></g>
</svg>